<?xml version="1.0" standalone="no"?>
<!DOCTYPE svg PUBLIC "-//W3C//DTD SVG 20010904//EN"
 "http://www.w3.org/TR/2001/REC-SVG-20010904/DTD/svg10.dtd">
<svg version="1.0" xmlns="http://www.w3.org/2000/svg"
 width="500.000000pt" height="500.000000pt" viewBox="0 0 500.000000 500.000000"
 preserveAspectRatio="xMidYMid meet">

<g transform="translate(0.000000,500.000000) scale(0.100000,-0.100000)"
fill="#000000" stroke="none">
<path d="M3399 3696 c-66 -17 -126 -56 -191 -123 l-58 -58 184 -183 183 -183
70 74 c84 88 113 153 113 250 -1 111 -59 191 -162 222 -61 18 -77 18 -139 1z"/>
<path d="M3060 3425 l-34 -36 182 -182 182 -182 37 37 37 37 -180 180 c-98
100 -181 181 -185 181 -3 0 -20 -16 -39 -35z"/>
<path d="M1425 1618 c-11 -31 -56 -241 -52 -244 6 -6 241 47 251 57 15 14 -12
86 -47 126 -48 54 -141 92 -152 61z"/>
</g>
</svg>
